<?xml version="1.0" encoding="UTF-8" standalone="no"?>
<!DOCTYPE svg PUBLIC "-//W3C//DTD SVG 1.1//EN"
 "http://www.w3.org/Graphics/SVG/1.1/DTD/svg11.dtd">
<!-- Generated by graphviz version 10.0.1 (20240210.2158)
 -->
<!-- Title: Tree Pages: 1 -->
<svg width="5627pt" height="671pt"
 viewBox="0.00 0.00 5627.25 670.50" xmlns="http://www.w3.org/2000/svg" xmlns:xlink="http://www.w3.org/1999/xlink">
<g id="graph0" class="graph" transform="scale(1 1) rotate(0) translate(4 666.5)">
<title>Tree</title>
<polygon fill="white" stroke="none" points="-4,4 -4,-666.5 5623.25,-666.5 5623.25,4 -4,4"/>
<!-- 0 -->
<g id="node1" class="node">
<title>0</title>
<polygon fill="#fffffd" stroke="black" points="3061.12,-662.5 2635.62,-662.5 2635.62,-555.5 3061.12,-555.5 3061.12,-662.5"/>
<text text-anchor="middle" x="2848.38" y="-645.2" font-family="Helvetica,sans-Serif" font-size="14.00">Ci1 r &lt;= inf</text>
<text text-anchor="middle" x="2848.38" y="-628.7" font-family="Helvetica,sans-Serif" font-size="14.00">gini = 0.9</text>
<text text-anchor="middle" x="2848.38" y="-612.2" font-family="Helvetica,sans-Serif" font-size="14.00">samples = 60000</text>
<text text-anchor="middle" x="2848.38" y="-595.7" font-family="Helvetica,sans-Serif" font-size="14.00">value = [5923, 6742, 5958, 6131, 5842, 5421, 5918, 6265, 5851</text>
<text text-anchor="middle" x="2848.38" y="-579.2" font-family="Helvetica,sans-Serif" font-size="14.00">5949]</text>
<text text-anchor="middle" x="2848.38" y="-562.7" font-family="Helvetica,sans-Serif" font-size="14.00">class = 1</text>
</g>
<!-- 1 -->
<g id="node2" class="node">
<title>1</title>
<polygon fill="#ffffff" stroke="black" points="2342,-519.5 1924.75,-519.5 1924.75,-412.5 2342,-412.5 2342,-519.5"/>
<text text-anchor="middle" x="2133.38" y="-502.2" font-family="Helvetica,sans-Serif" font-size="14.00">L1 y2 &lt;= 3.5</text>
<text text-anchor="middle" x="2133.38" y="-485.7" font-family="Helvetica,sans-Serif" font-size="14.00">gini = 0.887</text>
<text text-anchor="middle" x="2133.38" y="-469.2" font-family="Helvetica,sans-Serif" font-size="14.00">samples = 46402</text>
<text text-anchor="middle" x="2133.38" y="-452.7" font-family="Helvetica,sans-Serif" font-size="14.00">value = [5912, 329, 5660, 6005, 3650, 5102, 5622, 3143, 5576</text>
<text text-anchor="middle" x="2133.38" y="-436.2" font-family="Helvetica,sans-Serif" font-size="14.00">5403]</text>
<text text-anchor="middle" x="2133.38" y="-419.7" font-family="Helvetica,sans-Serif" font-size="14.00">class = 3</text>
</g>
<!-- 0&#45;&gt;1 -->
<g id="edge1" class="edge">
<title>0&#45;&gt;1</title>
<path fill="none" stroke="black" d="M2635.3,-565.98C2546.41,-548.45 2443.19,-528.1 2353.55,-510.42"/>
<polygon fill="black" stroke="black" points="2354.38,-507.02 2343.9,-508.52 2353.03,-513.88 2354.38,-507.02"/>
<text text-anchor="middle" x="2356.33" y="-523.94" font-family="Helvetica,sans-Serif" font-size="14.00">True</text>
</g>
<!-- 16 -->
<g id="node17" class="node">
<title>16</title>
<polygon fill="#f6f7c1" stroke="black" points="3766.25,-511.25 3362.5,-511.25 3362.5,-420.75 3766.25,-420.75 3766.25,-511.25"/>
<text text-anchor="middle" x="3564.38" y="-493.95" font-family="Helvetica,sans-Serif" font-size="14.00">L1 y1 &lt;= 24.5</text>
<text text-anchor="middle" x="3564.38" y="-477.45" font-family="Helvetica,sans-Serif" font-size="14.00">gini = 0.695</text>
<text text-anchor="middle" x="3564.38" y="-460.95" font-family="Helvetica,sans-Serif" font-size="14.00">samples = 13598</text>
<text text-anchor="middle" x="3564.38" y="-444.45" font-family="Helvetica,sans-Serif" font-size="14.00">value = [11, 6413, 298, 126, 2192, 319, 296, 3122, 275, 546]</text>
<text text-anchor="middle" x="3564.38" y="-427.95" font-family="Helvetica,sans-Serif" font-size="14.00">class = 1</text>
</g>
<!-- 0&#45;&gt;16 -->
<g id="edge16" class="edge">
<title>0&#45;&gt;16</title>
<path fill="none" stroke="black" d="M3061.26,-566.08C3152.76,-548.06 3259.49,-527.04 3351.04,-509.01"/>
<polygon fill="black" stroke="black" points="3351.51,-512.49 3360.65,-507.12 3350.16,-505.62 3351.51,-512.49"/>
<text text-anchor="middle" x="3348.2" y="-522.54" font-family="Helvetica,sans-Serif" font-size="14.00">False</text>
</g>
<!-- 2 -->
<g id="node3" class="node">
<title>2</title>
<polygon fill="#5350e8" stroke="black" points="1139.75,-368.25 835,-368.25 835,-277.75 1139.75,-277.75 1139.75,-368.25"/>
<text text-anchor="middle" x="987.38" y="-350.95" font-family="Helvetica,sans-Serif" font-size="14.00">Ci1 x &lt;= 10.0</text>
<text text-anchor="middle" x="987.38" y="-334.45" font-family="Helvetica,sans-Serif" font-size="14.00">gini = 0.21</text>
<text text-anchor="middle" x="987.38" y="-317.95" font-family="Helvetica,sans-Serif" font-size="14.00">samples = 3129</text>
<text text-anchor="middle" x="987.38" y="-301.45" font-family="Helvetica,sans-Serif" font-size="14.00">value = [128, 12, 98, 26, 37, 44, 2776, 0, 8, 0]</text>
<text text-anchor="middle" x="987.38" y="-284.95" font-family="Helvetica,sans-Serif" font-size="14.00">class = 6</text>
</g>
<!-- 1&#45;&gt;2 -->
<g id="edge2" class="edge">
<title>1&#45;&gt;2</title>
<path fill="none" stroke="black" d="M1924.51,-439.3C1702.11,-411.94 1354.75,-369.2 1151.26,-344.16"/>
<polygon fill="black" stroke="black" points="1151.73,-340.69 1141.37,-342.95 1150.87,-347.64 1151.73,-340.69"/>
</g>
<!-- 9 -->
<g id="node10" class="node">
<title>9</title>
<polygon fill="#fefffe" stroke="black" points="2343.5,-376.5 1923.25,-376.5 1923.25,-269.5 2343.5,-269.5 2343.5,-376.5"/>
<text text-anchor="middle" x="2133.38" y="-359.2" font-family="Helvetica,sans-Serif" font-size="14.00">L1 y1 &lt;= 24.5</text>
<text text-anchor="middle" x="2133.38" y="-342.7" font-family="Helvetica,sans-Serif" font-size="14.00">gini = 0.884</text>
<text text-anchor="middle" x="2133.38" y="-326.2" font-family="Helvetica,sans-Serif" font-size="14.00">samples = 43273</text>
<text text-anchor="middle" x="2133.38" y="-309.7" font-family="Helvetica,sans-Serif" font-size="14.00">value = [5784.0, 317.0, 5562.0, 5979.0, 3613.0, 5058.0, 2846.0</text>
<text text-anchor="middle" x="2133.38" y="-293.2" font-family="Helvetica,sans-Serif" font-size="14.00">3143.0, 5568.0, 5403.0]</text>
<text text-anchor="middle" x="2133.38" y="-276.7" font-family="Helvetica,sans-Serif" font-size="14.00">class = 3</text>
</g>
<!-- 1&#45;&gt;9 -->
<g id="edge9" class="edge">
<title>1&#45;&gt;9</title>
<path fill="none" stroke="black" d="M2133.38,-412.1C2133.38,-404.23 2133.38,-396.06 2133.38,-388"/>
<polygon fill="black" stroke="black" points="2136.88,-388.25 2133.38,-378.25 2129.88,-388.25 2136.88,-388.25"/>
</g>
<!-- 3 -->
<g id="node4" class="node">
<title>3</title>
<polygon fill="#ececfc" stroke="black" points="555.88,-225.25 308.88,-225.25 308.88,-134.75 555.88,-134.75 555.88,-225.25"/>
<text text-anchor="middle" x="432.38" y="-207.95" font-family="Helvetica,sans-Serif" font-size="14.00">L1 x1 &lt;= 11.5</text>
<text text-anchor="middle" x="432.38" y="-191.45" font-family="Helvetica,sans-Serif" font-size="14.00">gini = 0.727</text>
<text text-anchor="middle" x="432.38" y="-174.95" font-family="Helvetica,sans-Serif" font-size="14.00">samples = 119</text>
<text text-anchor="middle" x="432.38" y="-158.45" font-family="Helvetica,sans-Serif" font-size="14.00">value = [20, 5, 37, 5, 5, 2, 45, 0, 0, 0]</text>
<text text-anchor="middle" x="432.38" y="-141.95" font-family="Helvetica,sans-Serif" font-size="14.00">class = 6</text>
</g>
<!-- 2&#45;&gt;3 -->
<g id="edge3" class="edge">
<title>2&#45;&gt;3</title>
<path fill="none" stroke="black" d="M834.62,-283.19C750.78,-261.89 647.76,-235.72 566.97,-215.19"/>
<polygon fill="black" stroke="black" points="568.25,-211.91 557.7,-212.84 566.53,-218.69 568.25,-211.91"/>
</g>
<!-- 6 -->
<g id="node7" class="node">
<title>6</title>
<polygon fill="#4f4ce7" stroke="black" points="1135.62,-225.25 839.12,-225.25 839.12,-134.75 1135.62,-134.75 1135.62,-225.25"/>
<text text-anchor="middle" x="987.38" y="-207.95" font-family="Helvetica,sans-Serif" font-size="14.00">L1 x1 &lt;= 15.5</text>
<text text-anchor="middle" x="987.38" y="-191.45" font-family="Helvetica,sans-Serif" font-size="14.00">gini = 0.175</text>
<text text-anchor="middle" x="987.38" y="-174.95" font-family="Helvetica,sans-Serif" font-size="14.00">samples = 3010</text>
<text text-anchor="middle" x="987.38" y="-158.45" font-family="Helvetica,sans-Serif" font-size="14.00">value = [108, 7, 61, 21, 32, 42, 2731, 0, 8, 0]</text>
<text text-anchor="middle" x="987.38" y="-141.95" font-family="Helvetica,sans-Serif" font-size="14.00">class = 6</text>
</g>
<!-- 2&#45;&gt;6 -->
<g id="edge6" class="edge">
<title>2&#45;&gt;6</title>
<path fill="none" stroke="black" d="M987.38,-277.39C987.38,-264.4 987.38,-250.06 987.38,-236.49"/>
<polygon fill="black" stroke="black" points="990.88,-236.84 987.38,-226.84 983.88,-236.84 990.88,-236.84"/>
</g>
<!-- 4 -->
<g id="node5" class="node">
<title>4</title>
<polygon fill="#a9a7f4" stroke="black" points="238.75,-82.25 0,-82.25 0,-8.25 238.75,-8.25 238.75,-82.25"/>
<text text-anchor="middle" x="119.38" y="-64.95" font-family="Helvetica,sans-Serif" font-size="14.00">gini = 0.561</text>
<text text-anchor="middle" x="119.38" y="-48.45" font-family="Helvetica,sans-Serif" font-size="14.00">samples = 72</text>
<text text-anchor="middle" x="119.38" y="-31.95" font-family="Helvetica,sans-Serif" font-size="14.00">value = [20, 2, 4, 0, 3, 0, 43, 0, 0, 0]</text>
<text text-anchor="middle" x="119.38" y="-15.45" font-family="Helvetica,sans-Serif" font-size="14.00">class = 6</text>
</g>
<!-- 3&#45;&gt;4 -->
<g id="edge4" class="edge">
<title>3&#45;&gt;4</title>
<path fill="none" stroke="black" d="M327.28,-134.43C291.15,-119.1 250.91,-102.04 215.54,-87.03"/>
<polygon fill="black" stroke="black" points="217.17,-83.93 206.6,-83.24 214.44,-90.37 217.17,-83.93"/>
</g>
<!-- 5 -->
<g id="node6" class="node">
<title>5</title>
<polygon fill="#a7ee7b" stroke="black" points="607.62,-82.25 257.12,-82.25 257.12,-8.25 607.62,-8.25 607.62,-82.25"/>
<text text-anchor="middle" x="432.38" y="-64.95" font-family="Helvetica,sans-Serif" font-size="14.00">gini = 0.486</text>
<text text-anchor="middle" x="432.38" y="-48.45" font-family="Helvetica,sans-Serif" font-size="14.00">samples = 47</text>
<text text-anchor="middle" x="432.38" y="-31.95" font-family="Helvetica,sans-Serif" font-size="14.00">value = [0.0, 3.0, 33.0, 5.0, 2.0, 2.0, 2.0, 0.0, 0.0, 0.0]</text>
<text text-anchor="middle" x="432.38" y="-15.45" font-family="Helvetica,sans-Serif" font-size="14.00">class = 2</text>
</g>
<!-- 3&#45;&gt;5 -->
<g id="edge5" class="edge">
<title>3&#45;&gt;5</title>
<path fill="none" stroke="black" d="M432.38,-134.43C432.38,-121.38 432.38,-107.06 432.38,-93.83"/>
<polygon fill="black" stroke="black" points="435.88,-94.06 432.38,-84.06 428.88,-94.06 435.88,-94.06"/>
</g>
<!-- 7 -->
<g id="node8" class="node">
<title>7</title>
<polygon fill="#4c49e7" stroke="black" points="1010.88,-90.5 625.88,-90.5 625.88,0 1010.88,0 1010.88,-90.5"/>
<text text-anchor="middle" x="818.38" y="-73.2" font-family="Helvetica,sans-Serif" font-size="14.00">gini = 0.151</text>
<text text-anchor="middle" x="818.38" y="-56.7" font-family="Helvetica,sans-Serif" font-size="14.00">samples = 2936</text>
<text text-anchor="middle" x="818.38" y="-40.2" font-family="Helvetica,sans-Serif" font-size="14.00">value = [106.0, 7.0, 48.0, 11.0, 23.0, 32.0, 2702.0, 0.0, 7.0</text>
<text text-anchor="middle" x="818.38" y="-23.7" font-family="Helvetica,sans-Serif" font-size="14.00">0.0]</text>
<text text-anchor="middle" x="818.38" y="-7.2" font-family="Helvetica,sans-Serif" font-size="14.00">class = 6</text>
</g>
<!-- 6&#45;&gt;7 -->
<g id="edge7" class="edge">
<title>6&#45;&gt;7</title>
<path fill="none" stroke="black" d="M930.63,-134.43C915.72,-122.72 899.51,-109.99 884.17,-97.93"/>
<polygon fill="black" stroke="black" points="886.47,-95.29 876.45,-91.87 882.15,-100.8 886.47,-95.29"/>
</g>
<!-- 8 -->
<g id="node9" class="node">
<title>8</title>
<polygon fill="#cccbf8" stroke="black" points="1284,-82.25 1028.75,-82.25 1028.75,-8.25 1284,-8.25 1284,-82.25"/>
<text text-anchor="middle" x="1156.38" y="-64.95" font-family="Helvetica,sans-Serif" font-size="14.00">gini = 0.763</text>
<text text-anchor="middle" x="1156.38" y="-48.45" font-family="Helvetica,sans-Serif" font-size="14.00">samples = 74</text>
<text text-anchor="middle" x="1156.38" y="-31.95" font-family="Helvetica,sans-Serif" font-size="14.00">value = [2, 0, 13, 10, 9, 10, 29, 0, 1, 0]</text>
<text text-anchor="middle" x="1156.38" y="-15.45" font-family="Helvetica,sans-Serif" font-size="14.00">class = 6</text>
</g>
<!-- 6&#45;&gt;8 -->
<g id="edge8" class="edge">
<title>6&#45;&gt;8</title>
<path fill="none" stroke="black" d="M1044.12,-134.43C1062.58,-119.93 1083.03,-103.87 1101.36,-89.47"/>
<polygon fill="black" stroke="black" points="1103.27,-92.41 1108.98,-83.48 1098.95,-86.91 1103.27,-92.41"/>
</g>
<!-- 10 -->
<g id="node11" class="node">
<title>10</title>
<polygon fill="#fefffe" stroke="black" points="2142.5,-233.5 1722.25,-233.5 1722.25,-126.5 2142.5,-126.5 2142.5,-233.5"/>
<text text-anchor="middle" x="1932.38" y="-216.2" font-family="Helvetica,sans-Serif" font-size="14.00">L1 y1 &lt;= 16.5</text>
<text text-anchor="middle" x="1932.38" y="-199.7" font-family="Helvetica,sans-Serif" font-size="14.00">gini = 0.874</text>
<text text-anchor="middle" x="1932.38" y="-183.2" font-family="Helvetica,sans-Serif" font-size="14.00">samples = 37884</text>
<text text-anchor="middle" x="1932.38" y="-166.7" font-family="Helvetica,sans-Serif" font-size="14.00">value = [5775.0, 314.0, 5557.0, 5902.0, 3205.0, 5003.0, 2846.0</text>
<text text-anchor="middle" x="1932.38" y="-150.2" font-family="Helvetica,sans-Serif" font-size="14.00">1126.0, 5503.0, 2653.0]</text>
<text text-anchor="middle" x="1932.38" y="-133.7" font-family="Helvetica,sans-Serif" font-size="14.00">class = 3</text>
</g>
<!-- 9&#45;&gt;10 -->
<g id="edge10" class="edge">
<title>9&#45;&gt;10</title>
<path fill="none" stroke="black" d="M2057.96,-269.1C2044.65,-259.76 2030.72,-249.99 2017.18,-240.49"/>
<polygon fill="black" stroke="black" points="2019.32,-237.71 2009.12,-234.84 2015.3,-243.44 2019.32,-237.71"/>
</g>
<!-- 13 -->
<g id="node14" class="node">
<title>13</title>
<polygon fill="#f9d4db" stroke="black" points="2491.88,-225.25 2178.88,-225.25 2178.88,-134.75 2491.88,-134.75 2491.88,-225.25"/>
<text text-anchor="middle" x="2335.38" y="-207.95" font-family="Helvetica,sans-Serif" font-size="14.00">Ci1 r &lt;= 5.35</text>
<text text-anchor="middle" x="2335.38" y="-191.45" font-family="Helvetica,sans-Serif" font-size="14.00">gini = 0.593</text>
<text text-anchor="middle" x="2335.38" y="-174.95" font-family="Helvetica,sans-Serif" font-size="14.00">samples = 5389</text>
<text text-anchor="middle" x="2335.38" y="-158.45" font-family="Helvetica,sans-Serif" font-size="14.00">value = [9, 3, 5, 77, 408, 55, 0, 2017, 65, 2750]</text>
<text text-anchor="middle" x="2335.38" y="-141.95" font-family="Helvetica,sans-Serif" font-size="14.00">class = 9</text>
</g>
<!-- 9&#45;&gt;13 -->
<g id="edge13" class="edge">
<title>9&#45;&gt;13</title>
<path fill="none" stroke="black" d="M2209.17,-269.1C2226.45,-257.03 2244.79,-244.23 2261.97,-232.23"/>
<polygon fill="black" stroke="black" points="2263.95,-235.12 2270.15,-226.53 2259.94,-229.38 2263.95,-235.12"/>
</g>
<!-- 11 -->
<g id="node12" class="node">
<title>11</title>
<polygon fill="#fcfffd" stroke="black" points="1714.38,-90.5 1302.38,-90.5 1302.38,0 1714.38,0 1714.38,-90.5"/>
<text text-anchor="middle" x="1508.38" y="-73.2" font-family="Helvetica,sans-Serif" font-size="14.00">gini = 0.853</text>
<text text-anchor="middle" x="1508.38" y="-56.7" font-family="Helvetica,sans-Serif" font-size="14.00">samples = 19503</text>
<text text-anchor="middle" x="1508.38" y="-40.2" font-family="Helvetica,sans-Serif" font-size="14.00">value = [2371.0, 62.0, 1743.0, 4420.0, 1096.0, 4219.0, 1584.0</text>
<text text-anchor="middle" x="1508.38" y="-23.7" font-family="Helvetica,sans-Serif" font-size="14.00">517.0, 1854.0, 1637.0]</text>
<text text-anchor="middle" x="1508.38" y="-7.2" font-family="Helvetica,sans-Serif" font-size="14.00">class = 3</text>
</g>
<!-- 10&#45;&gt;11 -->
<g id="edge11" class="edge">
<title>10&#45;&gt;11</title>
<path fill="none" stroke="black" d="M1763.28,-126.06C1729.75,-115.56 1694.72,-104.59 1661.75,-94.27"/>
<polygon fill="black" stroke="black" points="1663.15,-91.04 1652.57,-91.39 1661.06,-97.72 1663.15,-91.04"/>
</g>
<!-- 12 -->
<g id="node13" class="node">
<title>12</title>
<polygon fill="#fefffd" stroke="black" points="2132.75,-90.5 1732,-90.5 1732,0 2132.75,0 2132.75,-90.5"/>
<text text-anchor="middle" x="1932.38" y="-73.2" font-family="Helvetica,sans-Serif" font-size="14.00">gini = 0.853</text>
<text text-anchor="middle" x="1932.38" y="-56.7" font-family="Helvetica,sans-Serif" font-size="14.00">samples = 18381</text>
<text text-anchor="middle" x="1932.38" y="-40.2" font-family="Helvetica,sans-Serif" font-size="14.00">value = [3404, 252, 3814, 1482, 2109, 784, 1262, 609, 3649</text>
<text text-anchor="middle" x="1932.38" y="-23.7" font-family="Helvetica,sans-Serif" font-size="14.00">1016]</text>
<text text-anchor="middle" x="1932.38" y="-7.2" font-family="Helvetica,sans-Serif" font-size="14.00">class = 2</text>
</g>
<!-- 10&#45;&gt;12 -->
<g id="edge12" class="edge">
<title>10&#45;&gt;12</title>
<path fill="none" stroke="black" d="M1932.38,-126.15C1932.38,-118.28 1932.38,-110.15 1932.38,-102.22"/>
<polygon fill="black" stroke="black" points="1935.88,-102.31 1932.38,-92.31 1928.88,-102.31 1935.88,-102.31"/>
</g>
<!-- 14 -->
<g id="node15" class="node">
<title>14</title>
<polygon fill="#f29cab" stroke="black" points="2519.62,-90.5 2151.12,-90.5 2151.12,0 2519.62,0 2519.62,-90.5"/>
<text text-anchor="middle" x="2335.38" y="-73.2" font-family="Helvetica,sans-Serif" font-size="14.00">gini = 0.525</text>
<text text-anchor="middle" x="2335.38" y="-56.7" font-family="Helvetica,sans-Serif" font-size="14.00">samples = 3051</text>
<text text-anchor="middle" x="2335.38" y="-40.2" font-family="Helvetica,sans-Serif" font-size="14.00">value = [0.0, 0.0, 2.0, 21.0, 240.0, 15.0, 0.0, 802.0, 43.0</text>
<text text-anchor="middle" x="2335.38" y="-23.7" font-family="Helvetica,sans-Serif" font-size="14.00">1928.0]</text>
<text text-anchor="middle" x="2335.38" y="-7.2" font-family="Helvetica,sans-Serif" font-size="14.00">class = 9</text>
</g>
<!-- 13&#45;&gt;14 -->
<g id="edge14" class="edge">
<title>13&#45;&gt;14</title>
<path fill="none" stroke="black" d="M2335.38,-134.43C2335.38,-124.14 2335.38,-113.06 2335.38,-102.35"/>
<polygon fill="black" stroke="black" points="2338.88,-102.44 2335.38,-92.44 2331.88,-102.45 2338.88,-102.44"/>
</g>
<!-- 15 -->
<g id="node16" class="node">
<title>15</title>
<polygon fill="#e7ccf8" stroke="black" points="2842.75,-82.25 2538,-82.25 2538,-8.25 2842.75,-8.25 2842.75,-82.25"/>
<text text-anchor="middle" x="2690.38" y="-64.95" font-family="Helvetica,sans-Serif" font-size="14.00">gini = 0.6</text>
<text text-anchor="middle" x="2690.38" y="-48.45" font-family="Helvetica,sans-Serif" font-size="14.00">samples = 2338</text>
<text text-anchor="middle" x="2690.38" y="-31.95" font-family="Helvetica,sans-Serif" font-size="14.00">value = [9, 3, 3, 56, 168, 40, 0, 1215, 22, 822]</text>
<text text-anchor="middle" x="2690.38" y="-15.45" font-family="Helvetica,sans-Serif" font-size="14.00">class = 7</text>
</g>
<!-- 13&#45;&gt;15 -->
<g id="edge15" class="edge">
<title>13&#45;&gt;15</title>
<path fill="none" stroke="black" d="M2454.57,-134.43C2495.9,-118.97 2541.97,-101.75 2582.34,-86.65"/>
<polygon fill="black" stroke="black" points="2583.47,-89.96 2591.61,-83.18 2581.01,-83.41 2583.47,-89.96"/>
</g>
<!-- 17 -->
<g id="node18" class="node">
<title>17</title>
<polygon fill="#f0f29b" stroke="black" points="3776,-376.5 3352.75,-376.5 3352.75,-269.5 3776,-269.5 3776,-376.5"/>
<text text-anchor="middle" x="3564.38" y="-359.2" font-family="Helvetica,sans-Serif" font-size="14.00">L1 x2 &lt;= 18.5</text>
<text text-anchor="middle" x="3564.38" y="-342.7" font-family="Helvetica,sans-Serif" font-size="14.00">gini = 0.603</text>
<text text-anchor="middle" x="3564.38" y="-326.2" font-family="Helvetica,sans-Serif" font-size="14.00">samples = 10703</text>
<text text-anchor="middle" x="3564.38" y="-309.7" font-family="Helvetica,sans-Serif" font-size="14.00">value = [11.0, 6365.0, 297.0, 121.0, 1942.0, 315.0, 296.0, 858.0</text>
<text text-anchor="middle" x="3564.38" y="-293.2" font-family="Helvetica,sans-Serif" font-size="14.00">270.0, 228.0]</text>
<text text-anchor="middle" x="3564.38" y="-276.7" font-family="Helvetica,sans-Serif" font-size="14.00">class = 1</text>
</g>
<!-- 16&#45;&gt;17 -->
<g id="edge17" class="edge">
<title>16&#45;&gt;17</title>
<path fill="none" stroke="black" d="M3564.38,-420.39C3564.38,-410.15 3564.38,-399.06 3564.38,-388.18"/>
<polygon fill="black" stroke="black" points="3567.88,-388.47 3564.38,-378.47 3560.88,-388.47 3567.88,-388.47"/>
</g>
<!-- 24 -->
<g id="node25" class="node">
<title>24</title>
<polygon fill="#ba69eb" stroke="black" points="4831.5,-368.25 4543.25,-368.25 4543.25,-277.75 4831.5,-277.75 4831.5,-368.25"/>
<text text-anchor="middle" x="4687.38" y="-350.95" font-family="Helvetica,sans-Serif" font-size="14.00">L1 y2 &lt;= 6.5</text>
<text text-anchor="middle" x="4687.38" y="-334.45" font-family="Helvetica,sans-Serif" font-size="14.00">gini = 0.369</text>
<text text-anchor="middle" x="4687.38" y="-317.95" font-family="Helvetica,sans-Serif" font-size="14.00">samples = 2895</text>
<text text-anchor="middle" x="4687.38" y="-301.45" font-family="Helvetica,sans-Serif" font-size="14.00">value = [0, 48, 1, 5, 250, 4, 0, 2264, 5, 318]</text>
<text text-anchor="middle" x="4687.38" y="-284.95" font-family="Helvetica,sans-Serif" font-size="14.00">class = 7</text>
</g>
<!-- 16&#45;&gt;24 -->
<g id="edge24" class="edge">
<title>16&#45;&gt;24</title>
<path fill="none" stroke="black" d="M3766.44,-439.63C3986.15,-412.04 4332.52,-368.55 4531.95,-343.51"/>
<polygon fill="black" stroke="black" points="4532.11,-347.02 4541.6,-342.3 4531.24,-340.08 4532.11,-347.02"/>
</g>
<!-- 18 -->
<g id="node19" class="node">
<title>18</title>
<polygon fill="#eaec72" stroke="black" points="3561.62,-233.5 3163.12,-233.5 3163.12,-126.5 3561.62,-126.5 3561.62,-233.5"/>
<text text-anchor="middle" x="3362.38" y="-216.2" font-family="Helvetica,sans-Serif" font-size="14.00">L1 x1 &lt;= 7.5</text>
<text text-anchor="middle" x="3362.38" y="-199.7" font-family="Helvetica,sans-Serif" font-size="14.00">gini = 0.434</text>
<text text-anchor="middle" x="3362.38" y="-183.2" font-family="Helvetica,sans-Serif" font-size="14.00">samples = 6835</text>
<text text-anchor="middle" x="3362.38" y="-166.7" font-family="Helvetica,sans-Serif" font-size="14.00">value = [8.0, 5076.0, 123.0, 52.0, 678.0, 109.0, 218.0, 301.0</text>
<text text-anchor="middle" x="3362.38" y="-150.2" font-family="Helvetica,sans-Serif" font-size="14.00">120.0, 150.0]</text>
<text text-anchor="middle" x="3362.38" y="-133.7" font-family="Helvetica,sans-Serif" font-size="14.00">class = 1</text>
</g>
<!-- 17&#45;&gt;18 -->
<g id="edge18" class="edge">
<title>17&#45;&gt;18</title>
<path fill="none" stroke="black" d="M3488.58,-269.1C3475.21,-259.76 3461.21,-249.99 3447.6,-240.49"/>
<polygon fill="black" stroke="black" points="3449.7,-237.69 3439.5,-234.83 3445.69,-243.43 3449.7,-237.69"/>
</g>
<!-- 21 -->
<g id="node22" class="node">
<title>21</title>
<polygon fill="#fffffd" stroke="black" points="3947.62,-225.25 3585.12,-225.25 3585.12,-134.75 3947.62,-134.75 3947.62,-225.25"/>
<text text-anchor="middle" x="3766.38" y="-207.95" font-family="Helvetica,sans-Serif" font-size="14.00">L1 x1 &lt;= 11.5</text>
<text text-anchor="middle" x="3766.38" y="-191.45" font-family="Helvetica,sans-Serif" font-size="14.00">gini = 0.754</text>
<text text-anchor="middle" x="3766.38" y="-174.95" font-family="Helvetica,sans-Serif" font-size="14.00">samples = 3868</text>
<text text-anchor="middle" x="3766.38" y="-158.45" font-family="Helvetica,sans-Serif" font-size="14.00">value = [3, 1289, 174, 69, 1264, 206, 78, 557, 150, 78]</text>
<text text-anchor="middle" x="3766.38" y="-141.95" font-family="Helvetica,sans-Serif" font-size="14.00">class = 1</text>
</g>
<!-- 17&#45;&gt;21 -->
<g id="edge21" class="edge">
<title>17&#45;&gt;21</title>
<path fill="none" stroke="black" d="M3640.17,-269.1C3657.45,-257.03 3675.79,-244.23 3692.97,-232.23"/>
<polygon fill="black" stroke="black" points="3694.95,-235.12 3701.15,-226.53 3690.94,-229.38 3694.95,-235.12"/>
</g>
<!-- 19 -->
<g id="node20" class="node">
<title>19</title>
<polygon fill="#b0f5e8" stroke="black" points="3149.5,-82.25 2861.25,-82.25 2861.25,-8.25 3149.5,-8.25 3149.5,-82.25"/>
<text text-anchor="middle" x="3005.38" y="-64.95" font-family="Helvetica,sans-Serif" font-size="14.00">gini = 0.728</text>
<text text-anchor="middle" x="3005.38" y="-48.45" font-family="Helvetica,sans-Serif" font-size="14.00">samples = 302</text>
<text text-anchor="middle" x="3005.38" y="-31.95" font-family="Helvetica,sans-Serif" font-size="14.00">value = [1, 33, 21, 11, 144, 26, 11, 39, 9, 7]</text>
<text text-anchor="middle" x="3005.38" y="-15.45" font-family="Helvetica,sans-Serif" font-size="14.00">class = 4</text>
</g>
<!-- 18&#45;&gt;19 -->
<g id="edge19" class="edge">
<title>18&#45;&gt;19</title>
<path fill="none" stroke="black" d="M3220,-126.06C3184.75,-112.95 3147.54,-99.12 3114.19,-86.71"/>
<polygon fill="black" stroke="black" points="3115.51,-83.47 3104.92,-83.27 3113.07,-90.03 3115.51,-83.47"/>
</g>
<!-- 20 -->
<g id="node21" class="node">
<title>20</title>
<polygon fill="#e9eb6a" stroke="black" points="3557.5,-90.5 3167.25,-90.5 3167.25,0 3557.5,0 3557.5,-90.5"/>
<text text-anchor="middle" x="3362.38" y="-73.2" font-family="Helvetica,sans-Serif" font-size="14.00">gini = 0.394</text>
<text text-anchor="middle" x="3362.38" y="-56.7" font-family="Helvetica,sans-Serif" font-size="14.00">samples = 6533</text>
<text text-anchor="middle" x="3362.38" y="-40.2" font-family="Helvetica,sans-Serif" font-size="14.00">value = [7.0, 5043.0, 102.0, 41.0, 534.0, 83.0, 207.0, 262.0</text>
<text text-anchor="middle" x="3362.38" y="-23.7" font-family="Helvetica,sans-Serif" font-size="14.00">111.0, 143.0]</text>
<text text-anchor="middle" x="3362.38" y="-7.2" font-family="Helvetica,sans-Serif" font-size="14.00">class = 1</text>
</g>
<!-- 18&#45;&gt;20 -->
<g id="edge20" class="edge">
<title>18&#45;&gt;20</title>
<path fill="none" stroke="black" d="M3362.38,-126.15C3362.38,-118.28 3362.38,-110.15 3362.38,-102.22"/>
<polygon fill="black" stroke="black" points="3365.88,-102.31 3362.38,-92.31 3358.88,-102.31 3365.88,-102.31"/>
</g>
<!-- 22 -->
<g id="node23" class="node">
<title>22</title>
<polygon fill="#f4f6b7" stroke="black" points="3957.38,-90.5 3575.38,-90.5 3575.38,0 3957.38,0 3957.38,-90.5"/>
<text text-anchor="middle" x="3766.38" y="-73.2" font-family="Helvetica,sans-Serif" font-size="14.00">gini = 0.695</text>
<text text-anchor="middle" x="3766.38" y="-56.7" font-family="Helvetica,sans-Serif" font-size="14.00">samples = 2404</text>
<text text-anchor="middle" x="3766.38" y="-40.2" font-family="Helvetica,sans-Serif" font-size="14.00">value = [2.0, 1177.0, 114.0, 28.0, 477.0, 67.0, 48.0, 333.0</text>
<text text-anchor="middle" x="3766.38" y="-23.7" font-family="Helvetica,sans-Serif" font-size="14.00">128.0, 30.0]</text>
<text text-anchor="middle" x="3766.38" y="-7.2" font-family="Helvetica,sans-Serif" font-size="14.00">class = 1</text>
</g>
<!-- 21&#45;&gt;22 -->
<g id="edge22" class="edge">
<title>21&#45;&gt;22</title>
<path fill="none" stroke="black" d="M3766.38,-134.43C3766.38,-124.14 3766.38,-113.06 3766.38,-102.35"/>
<polygon fill="black" stroke="black" points="3769.88,-102.44 3766.38,-92.44 3762.88,-102.45 3769.88,-102.44"/>
</g>
<!-- 23 -->
<g id="node24" class="node">
<title>23</title>
<polygon fill="#a5f3e5" stroke="black" points="4349.25,-90.5 3975.5,-90.5 3975.5,0 4349.25,0 4349.25,-90.5"/>
<text text-anchor="middle" x="4162.38" y="-73.2" font-family="Helvetica,sans-Serif" font-size="14.00">gini = 0.669</text>
<text text-anchor="middle" x="4162.38" y="-56.7" font-family="Helvetica,sans-Serif" font-size="14.00">samples = 1464</text>
<text text-anchor="middle" x="4162.38" y="-40.2" font-family="Helvetica,sans-Serif" font-size="14.00">value = [1.0, 112.0, 60.0, 41.0, 787.0, 139.0, 30.0, 224.0</text>
<text text-anchor="middle" x="4162.38" y="-23.7" font-family="Helvetica,sans-Serif" font-size="14.00">22.0, 48.0]</text>
<text text-anchor="middle" x="4162.38" y="-7.2" font-family="Helvetica,sans-Serif" font-size="14.00">class = 4</text>
</g>
<!-- 21&#45;&gt;23 -->
<g id="edge23" class="edge">
<title>21&#45;&gt;23</title>
<path fill="none" stroke="black" d="M3899.61,-134.33C3937.7,-121.57 3979.38,-107.6 4018.09,-94.62"/>
<polygon fill="black" stroke="black" points="4019.12,-97.96 4027.49,-91.47 4016.9,-91.33 4019.12,-97.96"/>
</g>
<!-- 25 -->
<g id="node26" class="node">
<title>25</title>
<polygon fill="#ebd5f9" stroke="black" points="4823.25,-225.25 4551.5,-225.25 4551.5,-134.75 4823.25,-134.75 4823.25,-225.25"/>
<text text-anchor="middle" x="4687.38" y="-207.95" font-family="Helvetica,sans-Serif" font-size="14.00">L1 x2 &lt;= 20.5</text>
<text text-anchor="middle" x="4687.38" y="-191.45" font-family="Helvetica,sans-Serif" font-size="14.00">gini = 0.67</text>
<text text-anchor="middle" x="4687.38" y="-174.95" font-family="Helvetica,sans-Serif" font-size="14.00">samples = 577</text>
<text text-anchor="middle" x="4687.38" y="-158.45" font-family="Helvetica,sans-Serif" font-size="14.00">value = [0, 38, 1, 2, 176, 0, 0, 262, 5, 93]</text>
<text text-anchor="middle" x="4687.38" y="-141.95" font-family="Helvetica,sans-Serif" font-size="14.00">class = 7</text>
</g>
<!-- 24&#45;&gt;25 -->
<g id="edge25" class="edge">
<title>24&#45;&gt;25</title>
<path fill="none" stroke="black" d="M4687.38,-277.39C4687.38,-264.4 4687.38,-250.06 4687.38,-236.49"/>
<polygon fill="black" stroke="black" points="4690.88,-236.84 4687.38,-226.84 4683.88,-236.84 4690.88,-236.84"/>
</g>
<!-- 28 -->
<g id="node29" class="node">
<title>28</title>
<polygon fill="#b157e9" stroke="black" points="5337.38,-233.5 4985.38,-233.5 4985.38,-126.5 5337.38,-126.5 5337.38,-233.5"/>
<text text-anchor="middle" x="5161.38" y="-216.2" font-family="Helvetica,sans-Serif" font-size="14.00">L1 y1 &lt;= 25.5</text>
<text text-anchor="middle" x="5161.38" y="-199.7" font-family="Helvetica,sans-Serif" font-size="14.00">gini = 0.244</text>
<text text-anchor="middle" x="5161.38" y="-183.2" font-family="Helvetica,sans-Serif" font-size="14.00">samples = 2318</text>
<text text-anchor="middle" x="5161.38" y="-166.7" font-family="Helvetica,sans-Serif" font-size="14.00">value = [0.0, 10.0, 0.0, 3.0, 74.0, 4.0, 0.0, 2002.0, 0.0</text>
<text text-anchor="middle" x="5161.38" y="-150.2" font-family="Helvetica,sans-Serif" font-size="14.00">225.0]</text>
<text text-anchor="middle" x="5161.38" y="-133.7" font-family="Helvetica,sans-Serif" font-size="14.00">class = 7</text>
</g>
<!-- 24&#45;&gt;28 -->
<g id="edge28" class="edge">
<title>24&#45;&gt;28</title>
<path fill="none" stroke="black" d="M4831.84,-279.03C4876.69,-265.69 4926.77,-250.79 4974.09,-236.71"/>
<polygon fill="black" stroke="black" points="4975.05,-240.08 4983.64,-233.87 4973.06,-233.37 4975.05,-240.08"/>
</g>
<!-- 26 -->
<g id="node27" class="node">
<title>26</title>
<polygon fill="#e2c0f7" stroke="black" points="4719.38,-90.5 4367.38,-90.5 4367.38,0 4719.38,0 4719.38,-90.5"/>
<text text-anchor="middle" x="4543.38" y="-73.2" font-family="Helvetica,sans-Serif" font-size="14.00">gini = 0.669</text>
<text text-anchor="middle" x="4543.38" y="-56.7" font-family="Helvetica,sans-Serif" font-size="14.00">samples = 503</text>
<text text-anchor="middle" x="4543.38" y="-40.2" font-family="Helvetica,sans-Serif" font-size="14.00">value = [0.0, 38.0, 1.0, 2.0, 122.0, 0.0, 0.0, 243.0, 5.0</text>
<text text-anchor="middle" x="4543.38" y="-23.7" font-family="Helvetica,sans-Serif" font-size="14.00">92.0]</text>
<text text-anchor="middle" x="4543.38" y="-7.2" font-family="Helvetica,sans-Serif" font-size="14.00">class = 7</text>
</g>
<!-- 25&#45;&gt;26 -->
<g id="edge26" class="edge">
<title>25&#45;&gt;26</title>
<path fill="none" stroke="black" d="M4639.02,-134.43C4626.56,-122.93 4613.03,-110.46 4600.17,-98.61"/>
<polygon fill="black" stroke="black" points="4602.68,-96.16 4592.96,-91.96 4597.94,-101.31 4602.68,-96.16"/>
</g>
<!-- 27 -->
<g id="node28" class="node">
<title>27</title>
<polygon fill="#81eeda" stroke="black" points="4975.75,-82.25 4737,-82.25 4737,-8.25 4975.75,-8.25 4975.75,-82.25"/>
<text text-anchor="middle" x="4856.38" y="-64.95" font-family="Helvetica,sans-Serif" font-size="14.00">gini = 0.401</text>
<text text-anchor="middle" x="4856.38" y="-48.45" font-family="Helvetica,sans-Serif" font-size="14.00">samples = 74</text>
<text text-anchor="middle" x="4856.38" y="-31.95" font-family="Helvetica,sans-Serif" font-size="14.00">value = [0, 0, 0, 0, 54, 0, 0, 19, 0, 1]</text>
<text text-anchor="middle" x="4856.38" y="-15.45" font-family="Helvetica,sans-Serif" font-size="14.00">class = 4</text>
</g>
<!-- 25&#45;&gt;27 -->
<g id="edge27" class="edge">
<title>25&#45;&gt;27</title>
<path fill="none" stroke="black" d="M4744.12,-134.43C4762.58,-119.93 4783.03,-103.87 4801.36,-89.47"/>
<polygon fill="black" stroke="black" points="4803.27,-92.41 4808.98,-83.48 4798.95,-86.91 4803.27,-92.41"/>
</g>
<!-- 29 -->
<g id="node30" class="node">
<title>29</title>
<polygon fill="#c077ed" stroke="black" points="5329.12,-90.5 4993.62,-90.5 4993.62,0 5329.12,0 5329.12,-90.5"/>
<text text-anchor="middle" x="5161.38" y="-73.2" font-family="Helvetica,sans-Serif" font-size="14.00">gini = 0.429</text>
<text text-anchor="middle" x="5161.38" y="-56.7" font-family="Helvetica,sans-Serif" font-size="14.00">samples = 667</text>
<text text-anchor="middle" x="5161.38" y="-40.2" font-family="Helvetica,sans-Serif" font-size="14.00">value = [0.0, 9.0, 0.0, 3.0, 62.0, 2.0, 0.0, 490.0, 0.0</text>
<text text-anchor="middle" x="5161.38" y="-23.7" font-family="Helvetica,sans-Serif" font-size="14.00">101.0]</text>
<text text-anchor="middle" x="5161.38" y="-7.2" font-family="Helvetica,sans-Serif" font-size="14.00">class = 7</text>
</g>
<!-- 28&#45;&gt;29 -->
<g id="edge29" class="edge">
<title>28&#45;&gt;29</title>
<path fill="none" stroke="black" d="M5161.38,-126.15C5161.38,-118.28 5161.38,-110.15 5161.38,-102.22"/>
<polygon fill="black" stroke="black" points="5164.88,-102.31 5161.38,-92.31 5157.88,-102.31 5164.88,-102.31"/>
</g>
<!-- 30 -->
<g id="node31" class="node">
<title>30</title>
<polygon fill="#ab4be7" stroke="black" points="5619.25,-82.25 5347.5,-82.25 5347.5,-8.25 5619.25,-8.25 5619.25,-82.25"/>
<text text-anchor="middle" x="5483.38" y="-64.95" font-family="Helvetica,sans-Serif" font-size="14.00">gini = 0.156</text>
<text text-anchor="middle" x="5483.38" y="-48.45" font-family="Helvetica,sans-Serif" font-size="14.00">samples = 1651</text>
<text text-anchor="middle" x="5483.38" y="-31.95" font-family="Helvetica,sans-Serif" font-size="14.00">value = [0, 1, 0, 0, 12, 2, 0, 1512, 0, 124]</text>
<text text-anchor="middle" x="5483.38" y="-15.45" font-family="Helvetica,sans-Serif" font-size="14.00">class = 7</text>
</g>
<!-- 28&#45;&gt;30 -->
<g id="edge30" class="edge">
<title>28&#45;&gt;30</title>
<path fill="none" stroke="black" d="M5289.56,-126.15C5321.25,-113.09 5354.72,-99.29 5384.75,-86.91"/>
<polygon fill="black" stroke="black" points="5385.91,-90.22 5393.82,-83.17 5383.25,-83.74 5385.91,-90.22"/>
</g>
</g>
</svg>
